Coordinates
version=1
nRows=17
nColumns=34
inDegrees=yes

Units are S.I. units (second, meters, Newtons, ...)
If the header above contains a line with 'inDegrees', this indicates whether rotational values are in degrees (yes) or radians (no).

endheader
time	pelvis_tilt	pelvis_list	pelvis_rotation	pelvis_tx	pelvis_ty	pelvis_tz	hip_flexion_r	hip_adduction_r	hip_rotation_r	knee_angle_r	ankle_angle_r	subtalar_angle_r	mtp_angle_r	hip_flexion_l	hip_adduction_l	hip_rotation_l	knee_angle_l	ankle_angle_l	subtalar_angle_l	mtp_angle_l	lumbar_extension	lumbar_bending	lumbar_rotation	arm_flex_r	arm_add_r	arm_rot_r	elbow_flex_r	pro_sup_r	arm_flex_l	arm_add_l	arm_rot_l	elbow_flex_l	pro_sup_l
      4.98333330	     17.41944662	     -3.64679643	   -187.36251198	     -1.54406539	      0.95946228	     -0.40951685	     -6.91971913	      0.95711625	     -3.52449830	     26.02463299	    -34.29695253	    -19.24454430	      0.00000000	     45.00405168	     -1.13090272	    -11.32905740	     37.18270523	     -4.89262898	     -4.30160616	      0.00000000	    -20.39563608	     -7.78462466	     18.16153014	     80.04532200	     -2.41586382	     56.42473206	    103.03363684	     92.02035527	    -32.42443085	     -6.35639407	   -369.72579781	     34.65106981	     73.20669371
      5.00000000	     14.88228884	     -1.11395167	   -186.12419390	     -1.59089757	      0.96515654	     -0.41308415	     -4.40993457	      5.37105745	     -2.61983124	     41.90138836	    -36.69730806	    -26.59844176	      0.00000000	     38.41178233	     -2.33423910	    -14.75815270	     33.19860555	     -4.66780758	     -1.21287090	      0.00000000	    -21.54659050	     -6.17273010	     12.84983593	     67.08375616	    -12.19679964	     33.47902281	    102.86342726	     91.26606252	    -27.08879907	     -5.54536986	   -377.69052441	     34.31776051	     72.79120130
      5.01666670	     13.26954646	      0.33528551	   -184.23045641	     -1.63300102	      0.95876999	     -0.41361463	     -0.58226227	      8.77261240	     -3.94597206	     57.35514767	    -36.20741927	    -28.98395663	      0.00000000	     33.65217445	     -2.29566204	    -17.66947396	     31.54691898	     -1.95944032	     -0.21323387	      0.00000000	    -23.29118814	     -6.32538429	      7.60347393	     55.21276618	    -20.68160481	     20.23022494	    109.21365681	     92.02279892	    -20.76674702	     -5.46023222	   -386.99057414	     36.29763300	     74.23181128
      5.03333330	     11.72421467	      1.43664351	   -182.03440280	     -1.67082949	      0.94874858	     -0.41152760	      3.90382788	     11.04802829	     -7.18648302	     72.71710447	    -35.47314008	    -30.64234494	      0.00000000	     29.28122687	     -2.03755929	    -18.32733009	     31.63749556	      2.00889453	     -1.86417897	      0.00000000	    -26.48750724	     -5.79624059	      3.19880101	     46.97044356	    -28.25827490	     15.75327680	    119.65250657	     92.39672658	    -13.69935203	     -6.62179539	   -389.34891250	     37.84739634	     78.63645123
      5.05000000	     10.66350580	      2.67338032	   -179.67891160	     -1.70756431	      0.93479014	     -0.40737190	      9.79963499	     12.34800707	    -11.22076232	     87.72934271	    -35.62121345	    -31.77121936	      0.00000000	     25.68166606	     -2.14791166	    -16.83454374	     33.07744728	      7.44353356	     -6.75164482	      0.00000000	    -29.26058888	     -4.09731769	      0.79982744	     39.92897649	    -36.82654863	     14.66139987	    133.59969473	     92.47011941	     -4.30511014	     -8.69485449	   -385.42294054	     36.27463889	     85.07065300
      5.06666670	      9.67430907	      3.39339005	   -177.23243568	     -1.74533875	      0.92444744	     -0.40318900	     16.49675871	     11.33756540	    -15.30714334	    101.78564285	    -34.91132876	    -32.21448338	      0.00000000	     21.84903345	     -2.06761112	    -15.12446921	     33.90677745	     12.62481952	    -12.39326864	      0.00000000	    -31.78905486	     -1.98040962	     -3.84641894	     36.85183025	    -42.49452091	     19.97112317	    142.28992404	     93.31487297	      3.94972700	     -9.94846201	   -384.08926915	     37.40525405	     86.01949906
      5.08333330	      8.61376806	      3.04260354	   -174.49117639	     -1.78576352	      0.91886586	     -0.40125304	     22.78567401	      7.69098529	    -18.32620259	    113.43468561	    -31.38864994	    -30.91692420	      0.00000000	     17.08490195	     -1.32197846	    -14.47358396	     32.82886041	     16.48434613	    -16.08411345	      0.00000000	    -33.60651015	     -1.08443162	     -6.73854802	     25.82467079	    -45.95489477	     13.12735061	    145.82843918	     95.26039576	     15.74006111	    -11.84756167	   -375.46339713	     35.23672902	     88.06123347
      5.10000000	      7.72088668	      2.50992200	   -171.51329179	     -1.82654249	      0.91490413	     -0.40212864	     28.69160324	      3.19343485	    -19.94579209	    122.08699069	    -24.14231805	    -27.97975053	      0.00000000	     12.32941336	     -1.09800289	    -14.66156230	     30.94124662	     20.42345401	    -17.19941653	      0.00000000	    -35.42495470	     -0.35890361	    -11.46182048	     14.35421984	    -44.13673049	     -3.87553102	    139.13785133	     94.33066705	     25.71212111	    -12.67917320	   -370.60884349	     38.67638209	     86.63388304
      5.11666670	      6.85858274	      2.67742287	   -168.32638247	     -1.86689913	      0.91326833	     -0.40430675	     35.00105159	     -0.12890916	    -19.89764958	    126.57917354	    -14.81085758	    -22.52991688	      0.00000000	      7.76315111	     -2.15804847	    -15.13832883	     28.47681469	     22.73163100	    -15.18855264	      0.00000000	    -36.79358921	      0.91302217	    -18.20365517	      8.09314356	    -37.94445679	    -14.76757902	    124.72278610	     93.42655750	     33.38112729	    -15.74342721	   -366.69781526	     44.45971550	     86.48822643
      5.13333330	      5.64737122	      3.91958475	   -165.20262640	     -1.90652457	      0.91015895	     -0.40487915	     41.77429912	     -1.64444317	    -19.05277301	    128.21551461	     -7.89003256	    -18.36193052	      0.00000000	      3.47239800	     -4.69118960	    -14.77647000	     26.03688280	     23.38289486	    -12.60315890	      0.00000000	    -38.71961270	      3.90319985	    -19.46902225	     -5.99799011	    -32.73596312	    -30.53534895	    116.25674226	     92.49975558	     42.93276142	    -16.40752490	   -360.29926631	     48.69361711	     86.95926380
      5.15000000	      5.56543552	      5.27914581	   -162.16434910	     -1.94806426	      0.90395435	     -0.40321410	     49.10849748	     -3.10778724	    -17.37001816	    128.24078138	     -2.07914877	    -14.94873435	      0.00000000	      0.14386165	     -7.24181539	    -14.33838704	     22.93059625	     22.82798928	     -9.49309508	      0.00000000	    -37.66414453	      7.51530829	    -22.64546125	    -16.33137125	    -27.58919782	    -36.82641477	    108.87820255	     92.19929719	     46.99964035	    -18.59158199	   -358.91711659	     54.71536984	     88.03338516
      5.16666670	      5.98851605	      6.86948420	   -159.67155796	     -1.99186804	      0.90003766	     -0.40104437	     56.04923429	     -4.34762688	    -15.48123969	    125.88986152	      2.85776270	    -14.95408026	      0.00000000	     -2.93856435	     -9.70570256	    -14.21180763	     18.96557951	     21.03845726	     -6.95218554	      0.00000000	    -35.25414483	     11.01800461	    -23.73720895	    -26.15027920	    -22.97079411	    -42.04383928	    103.24791780	     92.12666114	     49.79946391	    -18.91629766	   -356.44366234	     71.14828033	     89.42842407
      5.18333330	      6.72611540	      8.62083786	   -157.55633743	     -2.03604252	      0.89819080	     -0.39864696	     62.83244931	     -5.63374215	    -14.01678853	    120.71537665	      7.20771253	    -16.55136496	      0.00000000	     -5.65260962	    -12.12607963	    -14.63335667	     14.61527905	     18.04816067	     -4.51576259	      0.00000000	    -33.19331727	     14.81134886	    -27.04173891	    -29.15279883	    -21.33378633	    -40.59674728	     98.85958677	     93.66696110	     50.84896056	    -21.34722277	   -353.71588746	     89.60284408	     93.28838970
      5.20000000	      7.89596350	     10.39666753	   -156.34783947	     -2.08117309	      0.90046290	     -0.39661914	     68.91506112	     -6.37933909	    -13.18003392	    111.48185805	      7.80684478	    -19.15449447	      0.00000000	     -7.85941780	    -14.14405915	    -15.33369563	     10.24274276	     13.68159801	     -2.54122958	      0.00000000	    -31.01931838	     17.70837943	    -29.22319904	    -27.98550408	    -19.76498847	    -38.87434176	     93.45520030	     95.49937634	     50.74893757	    -23.98074118	   -347.86457839	    102.13560732	     97.04787539
      5.21666670	      9.86794874	     12.06816612	   -156.47873898	     -2.13061671	      0.90563552	     -0.39607467	     73.29754105	     -5.66327123	    -12.16093541	     98.33726162	      6.71848484	    -21.90174976	      0.00000000	     -9.00693311	    -15.51796562	    -16.21897626	      6.92265193	      7.81167013	     -2.02862086	      0.00000000	    -27.63100135	     19.66863884	    -29.77415653	    -25.89334924	    -19.16031056	    -36.33212194	     88.30213144	     97.73228751	     47.10801079	    -27.24724706	   -339.69141329	    104.14513986	    101.15602967
      5.23333330	     12.25293977	     13.36248209	   -157.46746109	     -2.18595517	      0.91304767	     -0.39699799	     74.11447123	     -3.36676272	    -10.87926364	     82.74378331	      4.50379125	    -23.86361569	      0.00000000	     -9.61516772	    -16.23603395	    -17.25807097	      4.79819279	     -0.38250501	     -2.61757906	      0.00000000	    -22.56305292	     20.80237215	    -29.82858829	    -23.51328572	    -19.48831835	    -33.11065074	     83.07548062	    100.43825706	     42.24466882	    -31.55197406	   -324.47542595	     94.24656279	    104.39250213
      5.25000000	     12.69620649	     13.00832153	   -158.53129893	     -2.24263841	      0.92224081	     -0.39916308	     69.82992559	     -0.61349158	     -9.53694519	     67.87148339	      2.69484116	    -24.18301244	      0.00000000	    -12.20361337	    -16.02286679	    -18.34234130	      4.27571504	     -9.56862767	     -3.81993196	      0.00000000	    -20.79937278	     20.62766261	    -31.94590665	    -17.98862626	    -19.84184233	    -28.39667464	     78.50428642	    104.12754531	     44.09236845	    -38.72326105	   -298.39373832	     97.29137070	    104.83404602
